# xmcd CD database file
#
# Track frame offsets:
#	280
#	24150
#	58764
#	84556
#	116040
#	127881
#
# Disc length: 2137 seconds
#
# Revision: 0
# Processed by: cddbd v1.4PL0 Copyright (c) Steve Scherf et al.
# Submitted via: CDex 1.50
#
DISCID=45085606
DTITLE=Albert Mangelsdorff - Albert Mangelsdorff and his friends
DYEAR=2003
DGENRE=Jazz
TTITLE0=I Dig It - You Dig It
TTITLE1=My Kind Of Time
TTITLE2=Way Beyond Cave
TTITLE3=Outox
TTITLE4=Al-Lee
TTITLE5=My Kind Of Beauty
EXTD=YEAR: 2003
EXTT0=
EXTT1=
EXTT2=
EXTT3=
EXTT4=
EXTT5=
PLAYORDER=
